<?xml version="1.0" standalone="no"?>
<!DOCTYPE svg PUBLIC "-//W3C//DTD SVG 20010904//EN"
 "http://www.w3.org/TR/2001/REC-SVG-20010904/DTD/svg10.dtd">
<svg version="1.0" xmlns="http://www.w3.org/2000/svg"
 width="1376.000000pt" height="1376.000000pt" viewBox="0 0 1376.000000 1376.000000"
 preserveAspectRatio="xMidYMid meet">

<g transform="translate(0.000000,1376.000000) scale(0.100000,-0.100000)"
fill="#000000" stroke="none">
<path d="M11210 8540 c0 -5 5 -10 10 -10 6 0 10 5 10 10 0 6 -4 10 -10 10 -5
0 -10 -4 -10 -10z"/>
<path d="M6848 8442 l-528 -2 3 -1557 2 -1556 595 2 c327 1 596 4 597 5 6 5 4
3099 -2 3104 -7 7 -44 7 -667 4z"/>
</g>
</svg>
